# xmcd CD database file
#
# Track frame offsets:
#	183
#	5070
#	14208
#	36495
#	53428
#	69858
#	82908
#	95923
#	115483
#	122233
#	151883
#	176533
#	229695
#	259173
#	286270
#	294745
#
# Disc length: 4319 seconds
#
# Revision: 4
# Processed by: cddbd v1.5.2PL0 Copyright (c) Steve Scherf et al.
# Submitted via: CDex 1.82
#
DISCID=e210dd10
DTITLE=The Real Thing - The Heart Rock Concert At The Philharmonic
DYEAR=1994
DGENRE=Blues
TTITLE0=The Real Thing
TTITLE1=Can you feel the force ?
TTITLE2=Get back on the right track
TTITLE3=Move on up
TTITLE4=Whenever you want my love
TTITLE5=Rainin' through my sunshine
TTITLE6=Wou'll never know what you're missing
TTITLE7=Can't get by without you
TTITLE8=Can't get by without you (Acapella)
TTITLE9=I love music
TTITLE10=Frontline
TTITLE11=Baby don't go
TTITLE12=Children of the Ghetto
TTITLE13=You to me are everything
TTITLE14=You to me are everything (Acapella)
TTITLE15=Can you feel the force...
EXTD=YEAR: 1994
EXTT0=
EXTT1=
EXTT2=
EXTT3=
EXTT4=
EXTT5=
EXTT6=
EXTT7=
EXTT8=
EXTT9=
EXTT10=
EXTT11=
EXTT12=
EXTT13=
EXTT14=
EXTT15=
PLAYORDER=
